<svg width="218" height="55" viewBox="0 0 218 55" fill="none" xmlns="http://www.w3.org/2000/svg">
<path d="M54.0003 43.256L56.9802 30.3084H60.9775C66.6101 30.3084 71.2979 31.8767 71.1889 37.1651C71.0435 43.0736 65.0112 45.4808 58.4337 45.4808H55.4176C53.6006 45.189 54.0003 43.256 54.0003 43.256ZM83.9076 37.384C84.271 31.5119 79.8376 26.4058 73.987 25.9317C79.6196 25.0199 86.9965 20.8621 86.9965 13.2759C86.9965 5.17905 78.8565 0.838867 66.6101 0.838867C61.3409 0.838867 56.0353 1.24006 50.8025 2.11539L42.0083 41.1406C42.0083 41.1406 38.9922 51.2434 47.6046 53.3223C49.8213 53.9058 52.147 54.2341 54.4364 54.2706C77.2575 55.5471 83.9076 45.2255 83.9076 37.384ZM61.5589 9.84749C63.3032 9.62866 65.0475 9.55571 66.8281 9.55571C71.4069 9.55571 74.6774 11.197 74.6048 14.9536C74.4957 19.5491 69.8806 22.1021 63.1942 22.1021H60.6141C58.7245 22.1021 59.2695 19.9138 59.2695 19.9138L61.5589 9.84749Z" fill="#00498C"/>
<path d="M139.907 54.4165C141.76 54.4165 145.249 53.687 146.484 48.3256C147.429 44.0584 149.028 36.8734 149.028 36.8734C150.263 36.8734 152.008 37.2016 154.006 37.2016C173.63 37.2016 180.425 24.5458 180.425 15.9748C180.425 6.6015 173.92 1.20362 159.748 1.13067C154.515 0.875368 149.282 1.27656 144.122 2.26131L132.603 54.4165H139.907ZM155.642 10.2122C157.313 10.0299 159.021 9.92046 160.729 9.95693C165.308 9.95693 169.087 11.3064 169.087 16.8137C169.087 22.321 164.836 27.7918 156.623 27.8648H155.06C151.354 27.8648 152.408 24.7646 152.408 24.7646L155.642 10.2122Z" fill="#00498C"/>
<path d="M103.858 31.4025C103.858 22.941 109.345 10.2851 121.882 10.2851C125.189 10.2851 131.003 11.124 134.456 14.1877C134.456 14.1877 135.727 9.84748 136.091 8.09682C136.454 6.30968 135.8 3.50133 130.386 1.67772C127.151 0.547082 123.735 0 120.32 0C100.696 0 90.4849 16.1936 90.4849 32.059C90.4849 49.0915 101.895 54.9635 113.488 54.9635C116.758 55.1094 120.029 54.6353 123.118 53.5411C124.971 52.9211 126.388 51.3893 126.897 49.4927L128.823 40.7394C125.443 43.5113 121.192 45.0066 116.867 44.9337C108.691 44.9337 103.93 39.6452 103.93 31.439" fill="#00498C"/>
<path d="M18.533 4.88734C14.0633 2.77196 9.08479 8.75339 8.79408 9.08164C7.63122 10.577 6.65005 12.2182 5.85059 13.9689L8.39434 15.2819C13.0821 17.5797 17.3338 20.7527 20.8588 24.6188C23.8749 17.142 23.4025 7.07567 18.533 4.88734Z" fill="#00498C"/>
<path d="M35.9397 32.205C31.2155 39.8277 18.2787 48.4716 14.6448 49.7481C10.284 51.6082 5.23287 50.3317 2.28938 46.6115C1.3809 45.5903 0.654109 44.4961 0 43.2925C28.9988 30.1261 24.093 7.47688 18.6058 4.92383C22.0943 6.74744 25.3286 8.97224 28.272 11.5618C30.7795 13.7866 33.0688 16.2302 35.1038 18.8562C38.1927 22.6493 38.5198 28.0472 35.9397 32.205Z" fill="#FF7800"/>
<path d="M201.247 24.6189C204.3 17.1421 203.791 7.11229 198.958 4.92396C194.488 2.80858 189.437 8.79001 189.255 9.11826C188.092 10.6136 187.075 12.2549 186.275 14.0055L188.819 15.3185C193.543 17.5798 197.759 20.7529 201.247 24.6189Z" fill="#00498C"/>
<path d="M195.033 49.7481C190.673 51.5717 185.658 50.2952 182.678 46.6115C181.806 45.5903 181.043 44.4961 180.389 43.2925C209.388 30.1261 204.445 7.47688 198.958 4.92383C202.447 6.74744 205.681 8.97224 208.624 11.5618C211.132 13.7866 213.421 16.2302 215.456 18.8562C218.545 22.6858 218.836 28.0472 216.219 32.205C211.604 39.7912 198.704 48.4716 195.033 49.7481Z" fill="#FF7800"/>
</svg>
