<svg width="40" height="40" viewBox="0 0 40 40" fill="none" xmlns="http://www.w3.org/2000/svg">
<path d="M39.3336 29.9999H33.2586C32.5336 29.9999 31.8169 29.8333 31.1752 29.5083L30.7586 29.2999C29.9252 28.8833 29.0086 28.6666 28.0752 28.6666H20.0002C19.6752 28.6666 19.3669 28.5416 19.1252 28.3249C19.0752 28.2833 19.0169 28.2333 18.9752 28.1749C18.7836 27.9416 18.6752 27.6416 18.6669 27.3416C18.6669 27.0083 18.8086 26.6833 19.0502 26.4499C19.3336 26.1583 19.7169 25.9999 20.1252 25.9916H27.3336C27.8586 25.9916 28.3669 25.7833 28.7419 25.4083C29.1669 24.9916 29.3836 24.4083 29.3252 23.8166C29.2419 23.0249 28.7002 22.3499 27.9419 22.1083L30.3169 17.9916H31.4586C32.4502 17.9916 33.3836 18.4333 34.0169 19.1916L34.9502 20.3166C35.8336 21.3833 37.1502 21.9999 38.5336 21.9916H39.3252C39.6919 21.9916 39.9919 21.6916 39.9919 21.3249C39.9919 20.9583 39.6919 20.6583 39.3252 20.6583H38.5336C37.5419 20.6583 36.6086 20.2166 35.9752 19.4583L35.0419 18.3333C34.1586 17.2666 32.8419 16.6499 31.4586 16.6583H31.0836L35.0419 9.80827C35.7836 8.5416 35.3586 6.89994 34.0919 6.15827C32.8252 5.41661 31.1836 5.84161 30.4419 7.10827C30.4336 7.11661 30.4336 7.12494 30.4252 7.1416L24.9252 16.6666H23.3669C21.4586 16.6666 19.6919 17.6916 18.7419 19.3416L14.6252 26.5083C14.0752 27.4666 14.4002 28.6916 15.3586 29.2416C15.8586 29.5333 16.4336 29.6916 17.0169 29.6916C17.1502 29.6916 17.2919 29.6833 17.4252 29.6583V29.6666C17.3836 29.7333 17.3586 29.8083 17.3419 29.8916L16.4086 35.5083C16.3502 35.8749 16.5919 36.2166 16.9586 36.2749C17.1502 36.3083 17.3419 36.2583 17.4919 36.1333L21.8919 32.5166C21.9502 32.4666 22.0086 32.4083 22.0419 32.3333L23.3836 29.9999H28.0669C28.7919 29.9999 29.5086 30.1666 30.1502 30.4916L30.5669 30.6999C31.4002 31.1166 32.3169 31.3333 33.2502 31.3333H39.3336C39.7002 31.3333 40.0002 31.0333 40.0002 30.6666C40.0002 30.2999 39.7002 29.9999 39.3336 29.9999ZM27.2586 23.3333C27.6252 23.3166 27.9419 23.5749 28.0002 23.9416C28.0169 24.1416 27.9419 24.3333 27.8002 24.4749C27.6752 24.5999 27.5086 24.6749 27.3336 24.6666H26.4669L27.2336 23.3333H27.2586ZM31.5752 7.81661C31.9502 7.18327 32.7669 6.9666 33.4002 7.3416C34.0336 7.70827 34.2419 8.51661 33.8836 9.14994L32.5502 11.4583L30.2419 10.1249L31.5752 7.81661ZM29.5752 11.2833L31.8836 12.6166L24.9252 24.6666H21.8419L29.5752 11.2833ZM16.0252 28.0916C15.7086 27.9083 15.5919 27.4999 15.7752 27.1833L19.9002 20.0083C20.6169 18.7666 21.9336 17.9999 23.3669 17.9999H24.1586L20.3086 24.6666H20.1252C19.3669 24.6749 18.6419 24.9749 18.1086 25.5166C17.6169 25.9999 17.3336 26.6666 17.3419 27.3583C17.3502 27.6749 17.4086 27.9833 17.5252 28.2833C17.0169 28.4166 16.4752 28.3499 16.0252 28.0916ZM20.9502 31.5583L18.0169 33.9749L18.6419 30.2249L18.9169 29.7499C19.2586 29.9083 19.6252 29.9916 20.0002 29.9999H21.8502L20.9502 31.5583Z" fill="white"/>
<path d="M30 5.33333C30.3667 5.33333 30.6667 5.03333 30.6667 4.66667V0.666667C30.6667 0.3 30.3667 0 30 0H8.70833C8.53333 0 8.36667 0.0666667 8.24167 0.191667L0.2 8.20833C0.0666667 8.33333 0 8.50833 0 8.68333V39.3333C0 39.7 0.3 40 0.666667 40H30C30.3667 40 30.6667 39.7 30.6667 39.3333V32.6667C30.6667 32.3 30.3667 32 30 32C29.6333 32 29.3333 32.3 29.3333 32.6667V38.6667H1.33333V10H8C8.73333 10 9.33333 9.4 9.33333 8.66667V1.33333H29.3333V4.66667C29.3333 5.03333 29.6333 5.33333 30 5.33333ZM1.625 8.66667L8 2.31667V8.66667H1.625Z" fill="white"/>
<path d="M26 5.33333H12.6667C12.3 5.33333 12 5.03333 12 4.66667C12 4.3 12.3 4 12.6667 4H26C26.3667 4 26.6667 4.3 26.6667 4.66667C26.6667 5.03333 26.3667 5.33333 26 5.33333Z" fill="white"/>
<path d="M26 9.33333H12.6667C12.3 9.33333 12 9.03333 12 8.66667C12 8.3 12.3 8 12.6667 8H26C26.3667 8 26.6667 8.3 26.6667 8.66667C26.6667 9.03333 26.3667 9.33333 26 9.33333Z" fill="white"/>
<path d="M24.6666 13.3333H5.99992C5.63325 13.3333 5.33325 13.0333 5.33325 12.6667C5.33325 12.3 5.63325 12 5.99992 12H24.6666C25.0333 12 25.3333 12.3 25.3333 12.6667C25.3333 13.0333 25.0333 13.3333 24.6666 13.3333Z" fill="white"/>
<path d="M17.9999 17.3333H5.99992C5.63325 17.3333 5.33325 17.0333 5.33325 16.6667C5.33325 16.3 5.63325 16 5.99992 16H17.9999C18.3666 16 18.6666 16.3 18.6666 16.6667C18.6666 17.0333 18.3666 17.3333 17.9999 17.3333Z" fill="white"/>
<path d="M15.3333 21.3333H5.99992C5.63325 21.3333 5.33325 21.0333 5.33325 20.6667C5.33325 20.3 5.63325 20 5.99992 20H15.3333C15.6999 20 15.9999 20.3 15.9999 20.6667C15.9999 21.0333 15.6999 21.3333 15.3333 21.3333Z" fill="white"/>
<path d="M13.9999 25.3333H5.99992C5.63325 25.3333 5.33325 25.0333 5.33325 24.6667C5.33325 24.3 5.63325 24 5.99992 24H13.9999C14.3666 24 14.6666 24.3 14.6666 24.6667C14.6666 25.0333 14.3666 25.3333 13.9999 25.3333Z" fill="white"/>
<path d="M13.9999 36.6668H5.99992C5.63325 36.6668 5.33325 36.3668 5.33325 36.0002C5.33325 35.6335 5.63325 35.3335 5.99992 35.3335H13.9999C14.3666 35.3335 14.6666 35.6335 14.6666 36.0002C14.6666 36.3668 14.3666 36.6668 13.9999 36.6668Z" fill="white"/>
<path d="M12.6666 29.3333H5.99992C5.63325 29.3333 5.33325 29.0333 5.33325 28.6667C5.33325 28.3 5.63325 28 5.99992 28H12.6666C13.0333 28 13.3333 28.3 13.3333 28.6667C13.3333 29.0333 13.0333 29.3333 12.6666 29.3333Z" fill="white"/>
</svg>
