<svg width="115" height="91" viewBox="0 0 115 91" fill="none" xmlns="http://www.w3.org/2000/svg">
<path d="M97.7648 0C108.872 0 114.916 5.89766 114.998 16.9659C115.243 51.0592 94.4162 80.5475 62.8904 90.2423C59.6235 91.2118 55.4582 91.2926 52.1913 90.2423C19.6037 80.2243 -2.61134 47.2621 0.247214 13.6535C0.900599 5.73608 7.10775 0.0807899 15.6834 0H97.7648Z" fill="#BB993E"/>
<path d="M57.1744 69.4793C56.8477 78.7702 49.5788 82.6481 41.6565 77.7199C22.8717 66.0054 11.4374 49.1203 7.51714 27.4686C6.86375 23.8331 8.17052 22.8636 9.23227 22.4596C12.0092 21.4902 12.6625 24.1562 13.3159 26.2568C16.3378 36.4363 21.6466 45.404 28.8338 53.3214C32.1007 56.8761 36.021 58.2496 40.5947 56.9569C45.4134 55.6643 47.9453 52.2711 48.4353 47.2621C49.5788 36.1939 52.1923 12.9264 52.6823 10.5027C53.1724 8.07904 53.8258 6.86719 56.1943 6.86719C58.5628 6.86719 58.8895 9.61404 58.8895 11.0683C59.2162 21.0054 57.5011 59.9461 57.1744 69.4793Z" fill="white"/>
<path d="M62.646 28.8421C62.8094 27.2263 63.2178 25.3682 65.1779 25.3682C67.1381 25.3682 67.4648 27.7111 67.5464 28.9229C68.0365 36.2748 68.3632 54.5333 68.4448 56.3107C68.5265 59.7846 70.5683 62.3699 73.8353 63.5817C77.1022 64.7936 81.3492 64.5512 83.5544 61.6428C87.9647 55.9067 96.0504 42.4148 96.4588 41.8493C97.4388 40.2335 98.2556 39.1024 100.216 39.8295C102.176 40.5566 101.522 42.4956 101.114 43.3843C99.0723 48.7972 96.7038 54.0485 93.9269 59.0575C88.9448 68.0252 81.3492 74.5692 72.2018 79.255C65.9946 82.4866 61.0126 79.4165 60.9309 72.3878C60.9309 65.4399 62.4827 30.4579 62.646 28.8421Z" fill="white"/>
<path d="M36.8378 53.8068C31.1207 53.8876 26.4653 49.2018 26.4653 43.5465C26.547 38.1336 31.2024 33.6094 36.7561 33.6094C42.3099 33.6094 46.8019 38.0528 46.8019 43.6273C46.8836 49.2826 42.3916 53.8068 36.8378 53.8068Z" fill="white"/>
<path d="M78.0008 46.374C82.2478 46.4548 85.5964 50.0903 85.433 54.3722C85.2697 58.4117 81.6761 61.6433 77.5924 61.5625C73.4271 61.4817 69.8335 57.6846 70.0785 53.5643C70.3235 49.6056 73.9171 46.2932 78.0008 46.374Z" fill="white"/>
</svg>
