<svg width="32" height="40" viewBox="0 0 32 40" fill="none" xmlns="http://www.w3.org/2000/svg">
<path d="M22.8545 21.8393C23.4273 22.3929 23.4273 23.3036 22.8636 23.8571L22.8545 23.8661L17.0364 29.5804C16.4727 30.1429 15.5455 30.1429 14.9818 29.5893L14.9727 29.5804L9.15455 23.8661C8.58182 23.3036 8.58182 22.4018 9.15455 21.8393C9.72727 21.2768 10.6455 21.2768 11.2182 21.8393L14.5455 25.125V14.2857C14.5455 13.5 15.2 12.8571 16 12.8571C16.8 12.8571 17.4545 13.5 17.4545 14.2857V25.125L20.7818 21.8393C21.3545 21.2857 22.2727 21.2768 22.8545 21.8393C22.8455 21.8393 22.8455 21.8393 22.8545 21.8393ZM32 11.0268V35.7143C32 38.0804 30.0455 40 27.6364 40H4.36364C1.95455 40 0 38.0804 0 35.7143V4.28571C0 1.91964 1.95455 0 4.36364 0H21.9091C23.2091 0 24.4364 0.5625 25.2727 1.54464L30.9909 8.28572C31.6364 9.05357 32 10.0268 32 11.0268ZM23.2727 3.66071V7.14286C23.2727 7.92857 23.9273 8.57143 24.7273 8.57143H27.4364L23.2727 3.66071ZM29.0909 11.4286H24.7273C22.3182 11.4286 20.3636 9.50893 20.3636 7.14286V2.85714H4.36364C3.56364 2.85714 2.90909 3.5 2.90909 4.28571V35.7143C2.90909 36.5 3.56364 37.1429 4.36364 37.1429H27.6364C28.4364 37.1429 29.0909 36.5 29.0909 35.7143V11.4286Z" fill="#BB993E"/>
</svg>
