<svg width="36" height="40" viewBox="0 0 36 40" fill="none" xmlns="http://www.w3.org/2000/svg">
<path d="M20.6757 24.8512C23.2969 24.8512 25.4286 22.7288 25.4286 20.1192C25.4286 17.5096 23.2969 15.3872 20.6757 15.3872C18.0546 15.3872 15.9229 17.5096 15.9229 20.1192C15.9229 22.7288 18.0546 24.8512 20.6757 24.8512ZM20.6757 17.2713C22.2528 17.2713 23.5361 18.5491 23.5361 20.1192C23.5361 21.6893 22.2528 22.9671 20.6757 22.9671C19.0987 22.9671 17.8153 21.6893 17.8153 20.1192C17.8153 18.5491 19.0987 17.2713 20.6757 17.2713Z" fill="white"/>
<path d="M23.7751 26.2803H17.5649C14.0954 26.2803 11.2676 29.0848 11.2676 32.5282V38.3322C11.2676 39.2743 12.0072 39.9998 12.9425 39.9998H28.3757C29.3219 39.9998 30.0506 39.2635 30.0506 38.3322V32.5391C30.0615 29.0848 27.2446 26.2803 23.7751 26.2803ZM28.1582 38.1265H26.418V32.5607C26.418 32.1384 26.07 31.7811 25.6349 31.7811C25.2108 31.7811 24.8519 32.1276 24.8519 32.5607V38.1265H16.4337V32.5607C16.4337 32.1384 16.0857 31.7811 15.6507 31.7811C15.2156 31.7811 14.8676 32.1276 14.8676 32.5607V38.1265H13.1491V32.5391C13.1491 30.1352 15.1177 28.1752 17.5431 28.1752H23.7534C26.1679 28.1752 28.1365 30.1352 28.1365 32.5391L28.1582 38.1265Z" fill="white"/>
<path d="M26.6249 9.464C29.2461 9.464 31.3778 7.34164 31.3778 4.732C31.3778 2.12236 29.2461 0 26.6249 0C24.0038 0 21.8721 2.12236 21.8721 4.732C21.8721 7.34164 24.0038 9.464 26.6249 9.464ZM26.6249 1.88414C28.202 1.88414 29.4854 3.16188 29.4854 4.732C29.4854 6.30211 28.202 7.57986 26.6249 7.57986C25.0479 7.57986 23.7645 6.30211 23.7645 4.732C23.7645 3.16188 25.037 1.88414 26.6249 1.88414Z" fill="white"/>
<path d="M34.1616 12.7338C32.9761 11.5535 31.3991 10.9038 29.7242 10.9038H23.4051C21.4257 10.9038 19.5441 11.8567 18.3695 13.4593C18.0541 13.8816 18.152 14.4663 18.5652 14.7804C18.7284 14.8995 18.935 14.9644 19.1199 14.9644C19.4136 14.9644 19.6964 14.8345 19.8813 14.5855C20.697 13.4701 22.013 12.8096 23.3943 12.8096H29.7242C30.8988 12.8096 31.9864 13.2644 32.8239 14.0874C33.6613 14.9103 34.1072 16.0148 34.1072 17.1734V22.7392H32.3671V17.1734C32.3671 16.7511 32.019 16.3938 31.584 16.3938C31.1489 16.3938 30.8009 16.7403 30.8009 17.1734V22.7392H25.9175C25.3955 22.7392 24.9713 23.1615 24.9713 23.6813C24.9713 24.201 25.3955 24.6234 25.9175 24.6234H34.3139C35.2601 24.6234 35.9888 23.887 35.9888 22.9558V17.1518C35.9997 17.1518 35.9997 17.1518 35.9997 17.1518C35.9997 15.4734 35.3471 13.9141 34.1616 12.7338Z" fill="white"/>
<path d="M9.39691 15.7877C12.0181 15.7877 14.1498 13.6654 14.1498 11.0557C14.1498 8.44609 12.0181 6.32373 9.39691 6.32373C6.77576 6.32373 4.64404 8.44609 4.64404 11.0557C4.64404 13.6654 6.77576 15.7877 9.39691 15.7877ZM9.39691 8.19704C10.974 8.19704 12.2573 9.47478 12.2573 11.0449C12.2573 12.615 10.974 13.8928 9.39691 13.8928C7.81987 13.8928 6.53649 12.615 6.53649 11.0449C6.53649 9.48561 7.81987 8.19704 9.39691 8.19704Z" fill="white"/>
<path d="M10.006 29.0527H5.18791V23.4869C5.18791 23.0646 4.83988 22.7073 4.40483 22.7073C3.96979 22.7073 3.62175 23.0538 3.62175 23.4869V29.0527H1.88157V23.4653C1.88157 21.0614 3.85015 19.1014 6.27553 19.1014L12.5293 19.1122C13.0949 19.1122 13.6169 19.2097 14.139 19.4263C14.2586 19.4696 14.3674 19.4912 14.4979 19.4912C14.8677 19.4912 15.2266 19.2747 15.3788 18.9065C15.5746 18.4192 15.3353 17.8778 14.8568 17.6829C14.1063 17.3797 13.345 17.2389 12.5402 17.2389L6.29728 17.2173C2.82779 17.2173 0 20.0218 0 23.4653V29.2693C0 30.2113 0.739577 30.9368 1.67492 30.9368H10.006C10.5281 30.9368 10.9523 30.5145 10.9523 29.9948C10.9523 29.475 10.5281 29.0527 10.006 29.0527Z" fill="white"/>
</svg>
