<svg width="224" height="56" viewBox="0 0 224 56" fill="none" xmlns="http://www.w3.org/2000/svg">
<circle cx="4" cy="4" r="4" fill="#BB993E"/>
<circle cx="4" cy="28" r="4" fill="#BB993E"/>
<circle cx="4" cy="52" r="4" fill="#BB993E"/>
<circle cx="28" cy="4" r="4" fill="#BB993E"/>
<circle cx="28" cy="28" r="4" fill="#BB993E"/>
<circle cx="28" cy="52" r="4" fill="#BB993E"/>
<circle cx="52" cy="4" r="4" fill="#BB993E"/>
<circle cx="52" cy="28" r="4" fill="#BB993E"/>
<circle cx="52" cy="52" r="4" fill="#BB993E"/>
<circle cx="76" cy="4" r="4" fill="#BB993E"/>
<circle cx="76" cy="28" r="4" fill="#BB993E"/>
<circle cx="76" cy="52" r="4" fill="#BB993E"/>
<circle cx="100" cy="4" r="4" fill="#BB993E"/>
<circle cx="100" cy="28" r="4" fill="#BB993E"/>
<circle cx="100" cy="52" r="4" fill="#BB993E"/>
<circle cx="124" cy="4" r="4" fill="#BB993E"/>
<circle cx="124" cy="28" r="4" fill="#BB993E"/>
<circle cx="124" cy="52" r="4" fill="#BB993E"/>
<circle cx="148" cy="4" r="4" fill="#BB993E"/>
<circle cx="148" cy="28" r="4" fill="#BB993E"/>
<circle cx="172" cy="4" r="4" fill="#BB993E"/>
<circle cx="172" cy="28" r="4" fill="#BB993E"/>
<circle cx="196" cy="4" r="4" fill="#BB993E"/>
<circle cx="196" cy="28" r="4" fill="#BB993E"/>
<circle cx="220" cy="4" r="4" fill="#BB993E"/>
<circle cx="220" cy="28" r="4" fill="#BB993E"/>
</svg>
