<svg width="304" height="288" viewBox="0 0 304 288" fill="none" xmlns="http://www.w3.org/2000/svg">
<path d="M273.957 222.798C275.651 219.63 277.255 216.462 278.682 213.207C278.682 213.207 278.771 213.207 278.771 213.295C278.771 213.295 278.771 213.119 278.771 212.943C279.841 210.479 280.821 207.927 281.802 205.463C284.655 205.375 300.256 204.143 304 188.129C304 188.129 291.341 186.633 284.655 197.192C286.348 191.736 287.686 186.369 288.755 181.001C291.163 180.737 301.771 178.802 303.643 167.45C303.643 167.45 293.837 167.01 289.736 175.898C290.628 170.706 291.341 165.603 291.876 160.763C291.965 160.851 291.965 160.939 292.054 160.939C292.054 160.939 299.364 149.5 291.787 138.589C291.787 138.589 284.031 148.444 291.341 159.795H291.163C290.093 171.058 288.221 181.177 285.814 190.329C285.903 186.017 284.922 174.578 274.224 168.77C274.224 168.77 270.836 184.081 285.368 191.912C283.496 198.6 281.356 204.847 279.038 210.479C279.038 204.407 277.523 189.801 263.704 182.321C263.704 182.321 259.247 202.296 278.058 212.767C274.402 221.038 270.212 228.253 265.755 234.501C267.449 228.341 269.499 214.439 258.623 203.439C258.623 203.439 248.906 221.214 264.061 236.877C259.871 242.42 255.414 247.172 250.956 251.219C253.363 246.38 259.069 231.861 249.351 218.134C249.351 218.134 236.87 234.237 249.708 252.363C244.894 256.587 239.991 260.019 235.355 262.834C233.75 263.802 232.235 264.682 230.63 265.474C234.731 259.579 243.378 243.74 234.553 225.878C234.553 225.878 216.544 242.508 228.134 266.794C218.951 271.282 210.215 273.834 203.35 275.241C207.986 271.37 221.982 257.819 217.168 236.965C217.168 236.965 195.594 248.756 201.656 275.593C193.544 277.089 188.284 277.089 188.195 277.089V277.969C188.373 277.969 198.18 278.057 211.819 274.098C212.711 275.417 227.331 294.952 248.371 285.537C248.371 285.537 238.564 268.026 220.021 271.37C222.785 270.314 225.638 269.082 228.58 267.674C228.669 267.85 228.758 267.938 228.758 268.114C228.758 268.114 229.025 267.762 229.471 267.234C231.521 266.178 233.661 265.034 235.712 263.802C237.227 262.922 238.653 261.955 240.08 260.987C242.041 263.01 256.929 277.089 273.957 266.354C273.957 266.354 261.387 249.724 243.2 258.787C251.669 252.627 258.712 245.5 264.596 237.669L264.685 237.757C264.685 237.757 264.774 237.581 264.863 237.317C267.27 234.061 269.499 230.717 271.55 227.285C272.53 227.549 291.341 232.213 299.899 215.054C299.81 214.966 283.852 208.719 273.957 222.798Z" fill="#BB993E"/>
<path d="M255.592 248.316C255.592 248.316 275.294 260.283 289.914 244.004C289.825 244.004 271.371 230.013 255.592 248.316Z" fill="#BB993E"/>
<path d="M289.112 173.434C289.112 173.434 290.717 159.795 279.306 153.548C279.395 153.636 276.453 166.835 289.112 173.434Z" fill="#BB993E"/>
<path d="M115.984 277C115.894 277 110.635 277 102.522 275.505C108.584 248.667 87.01 236.876 87.01 236.876C82.285 257.73 96.1924 271.281 100.828 275.153C93.8745 273.745 85.227 271.193 76.0446 266.705C87.5449 242.419 69.6258 225.789 69.6258 225.789C60.8 243.739 69.4475 259.49 73.5484 265.385C72.0328 264.594 70.4281 263.714 68.8235 262.746C64.1877 260.018 59.3736 256.586 54.4704 252.275C67.3079 234.148 54.827 218.045 54.827 218.045C45.1097 231.772 50.8153 246.291 53.2223 251.131C48.7648 247.083 44.3073 242.331 40.1173 236.788C55.1836 221.125 45.5554 203.351 45.5554 203.351C34.6792 214.35 36.7296 228.253 38.4235 234.412C33.966 228.165 29.776 221.037 26.1208 212.678C44.9314 202.207 40.4739 182.232 40.4739 182.232C26.6557 189.8 25.1402 204.319 25.1402 210.39C22.7331 204.758 20.5935 198.511 18.8106 191.824C33.3419 183.992 29.9543 168.681 29.9543 168.681C19.2563 174.489 18.2757 185.928 18.3648 190.24C15.9578 181.088 14.0856 170.969 13.0158 159.706H12.8375C20.1478 148.355 12.3918 138.5 12.3918 138.5C4.81408 149.323 12.1243 160.85 12.1243 160.85C12.2135 160.762 12.2135 160.674 12.3026 160.674C12.8375 165.514 13.4616 170.617 14.4422 175.809C10.4305 166.922 0.534897 167.362 0.534897 167.362C2.31789 178.713 13.0158 180.648 15.4229 180.912C16.4927 186.192 17.8299 191.648 19.5238 197.103C12.6592 186.544 0 188.04 0 188.04C3.65513 204.055 19.3455 205.286 22.1982 205.374C23.0897 207.838 24.1595 210.39 25.2293 212.854C25.2293 213.118 25.2293 213.206 25.2293 213.206C25.2293 213.206 25.3185 213.206 25.3185 213.118C26.7449 216.374 28.2604 219.541 30.0434 222.709C20.1478 208.63 4.19003 214.878 4.19003 214.878C12.7484 232.036 31.6481 227.373 32.5396 227.109C34.59 230.54 36.8188 233.884 39.2258 237.14C39.315 237.404 39.4041 237.58 39.4041 237.58L39.4933 237.492C45.3771 245.235 52.4199 252.451 60.8892 258.61C42.7026 249.547 30.1325 266.177 30.1325 266.177C47.1601 276.912 62.0481 262.834 64.0094 260.81C65.4358 261.778 66.8622 262.746 68.3777 263.626C70.5173 264.857 72.5677 266.001 74.6182 267.057C75.0639 267.673 75.3314 267.937 75.3314 267.937C75.4205 267.761 75.5097 267.673 75.5097 267.497C78.4516 268.905 81.3044 270.137 84.068 271.193C65.5249 267.849 55.7185 285.36 55.7185 285.36C76.7578 294.775 91.2891 275.241 92.2698 273.921C105.821 277.88 115.716 277.792 115.894 277.792L115.984 277Z" fill="#BB993E"/>
<path d="M48.408 248.315C32.6286 230.012 14.0854 244.003 14.0854 244.003C28.706 260.282 48.408 248.315 48.408 248.315Z" fill="#BB993E"/>
<path d="M14.799 173.433C27.5474 166.834 24.6055 153.547 24.6055 153.547C13.1943 159.794 14.799 173.433 14.799 173.433Z" fill="#BB993E"/>
<path d="M269.232 0H152H34.7683C34.7683 0 32.8961 15.0467 36.997 124.686C40.563 220.51 152 263.802 152 263.802C152 263.802 263.348 220.51 267.003 124.686C271.104 15.0467 269.232 0 269.232 0ZM256.751 125.566C255.057 170.53 226.886 202.383 203.528 221.214C178.299 241.54 153.159 251.395 152.891 251.483L152 251.835L151.108 251.483C150.841 251.395 125.701 241.54 100.471 221.214C77.1143 202.383 48.943 170.442 47.2492 125.566C43.6832 29.0376 45.1987 14.7828 45.2879 14.2548L45.5553 12.143H258.445L258.712 14.2548C258.801 14.7828 260.317 28.9496 256.751 125.566Z" fill="#BB993E"/>
<path d="M50.0131 16.8945C49.7456 23.494 49.2999 47.8679 52.1526 125.301C53.7573 168.418 81.0371 199.215 103.592 217.43C125.523 235.116 147.364 244.708 152 246.643C156.636 244.708 178.478 235.116 200.408 217.43C222.963 199.215 250.243 168.506 251.848 125.389C254.7 47.9559 254.255 23.582 253.987 16.9825H50.0131V16.8945Z" fill="#BB993E"/>
</svg>
